<svg width="32" height="32" viewBox="0 0 32 32" fill="none" xmlns="http://www.w3.org/2000/svg">
  <rect width="32" height="32" rx="7" fill="#1f1b16"/>
  <!-- open book: two cream pages meeting at an accent spine -->
  <path d="M16 9.5C12.6 7.8 8.8 7.8 5.5 9V22C8.8 20.8 12.6 20.8 16 22.5V9.5Z" fill="#f7f3ec"/>
  <path d="M16 9.5C19.4 7.8 23.2 7.8 26.5 9V22C23.2 20.8 19.4 20.8 16 22.5V9.5Z" fill="#fbf9f4"/>
  <!-- text lines -->
  <path d="M8 11.6C9.8 11.2 11.8 11.3 13.5 11.9M8 14.2C9.8 13.8 11.8 13.9 13.5 14.5M8 16.8C9.6 16.4 11 16.5 12.4 16.9" stroke="#cdbfae" stroke-width="0.9" stroke-linecap="round"/>
  <path d="M18.5 11.9C20.2 11.3 22.2 11.2 24 11.6M18.5 14.5C20.2 13.9 22.2 13.8 24 14.2M19.6 16.9C20.8 16.5 22.4 16.4 24 16.8" stroke="#d8cdbb" stroke-width="0.9" stroke-linecap="round"/>
  <!-- spine + bookmark ribbon -->
  <path d="M16 9.2V22.6" stroke="#b5562f" stroke-width="1.4" stroke-linecap="round"/>
  <path d="M16 6.3H18.4V11.2L17.2 10.1L16 11.2V6.3Z" fill="#b5562f"/>
</svg>
